<svg width="100" height="100" viewBox="0 0 100 100" fill="none" xmlns="http://www.w3.org/2000/svg">
  <circle cx="50" cy="50" r="48" fill="black" />
  <circle cx="50" cy="50" r="44" fill="#dd0000" />
  <circle cx="50" cy="50" r="28" stroke="black" stroke-width="0.8" />
  <circle cx="50" cy="50" r="8" fill="black" />
  <g>
    <path d="M50 22 C55 22 58 25 58 29 C58 33 55 36 51 36 C47 36 45 33 45 29 C45 27 46 24 49 22 C50 21 50 22 50 22" fill="black" />
    <path d="M50 22 C55 22 58 25 58 29 C58 33 55 36 51 36 C47 36 45 33 45 29 C45 27 46 24 49 22 C50 21 50 22 50 22" fill="black" transform="rotate(120 50 50)" />
    <path d="M50 22 C55 22 58 25 58 29 C58 33 55 36 51 36 C47 36 45 33 45 29 C45 27 46 24 49 22 C50 21 50 22 50 22" fill="black" transform="rotate(240 50 50)" />
  </g>
</svg>
